<?xml version="1.0" encoding="utf-8"?>
<!-- Generator: Adobe Illustrator 25.2.1, SVG Export Plug-In . SVG Version: 6.00 Build 0)  -->
<svg version="1.1" id="Layer_1" xmlns="http://www.w3.org/2000/svg" xmlns:xlink="http://www.w3.org/1999/xlink" x="0px" y="0px"
	 viewBox="0 0 50 50" style="enable-background:new 0 0 50 50;" xml:space="preserve">
<g>
	<path d="M7.84,36.69v2.72H0V9.3h7.84v10.77c1.53-1.86,3.42-3.46,6.77-3.46c5.32,0,9.9,4.41,9.9,11.55v0.08
		c0,7.26-4.58,11.67-9.86,11.67C11.26,39.91,9.28,38.38,7.84,36.69z M16.79,28.27v-0.08c0-2.93-2.02-5.03-4.58-5.03
		c-2.52,0-4.54,2.1-4.54,5.03v0.08c0,2.97,2.02,5.07,4.54,5.07C14.77,33.35,16.79,31.28,16.79,28.27z"/>
	<path d="M27.89,9.3h7.84v10.85c1.44-1.86,3.51-3.55,6.68-3.55c4.74,0,7.59,3.13,7.59,8.21v14.6h-7.84V27.32
		c0-2.43-1.28-3.75-3.14-3.75c-1.9,0-3.3,1.32-3.3,3.75v12.09h-7.84V9.3z"/>
</g>
</svg>
